<svg xmlns="http://www.w3.org/2000/svg" width="1200" height="630" viewBox="0 0 1200 630"><rect width="1200" height="630" fill="#d4e8fa"/><circle cx="960" cy="120" r="220" fill="#f5c4c8" opacity=".7"/><path d="M0 500C220 390 350 580 560 460s370-10 640 30v140H0Z" fill="#fff7ed"/><g fill="none" stroke="#39324f" stroke-width="12" stroke-linecap="round"><path d="M150 430C330 190 470 510 640 280s250-30 410 30"/><path d="M120 300c180 130 260-170 450 60s290 80 470-60"/></g><g fill="#cf5c62" stroke="#39324f" stroke-width="8"><circle cx="150" cy="430" r="24"/><circle cx="560" cy="390" r="24"/><circle cx="1040" cy="310" r="24"/></g><text x="80" y="120" fill="#39324f" font-family="Arial,Microsoft YaHei,sans-serif" font-size="28" font-weight="700" letter-spacing="6">PLUG CABLE SPIRITS</text><text x="80" y="225" fill="#cf5c62" font-family="Arial,Microsoft YaHei,sans-serif" font-size="72" font-weight="900">樱色插线室</text><text x="84" y="275" fill="#39324f" font-family="Arial,Microsoft YaHei,sans-serif" font-size="25">转一转，找到畅通的出口。</text></svg>